<svg xmlns="http://www.w3.org/2000/svg" width="1200" height="390" viewBox="0 0 1200 390" role="img" aria-labelledby="title"><title id="title">inRebus digital experience — web, motion and interaction. Private professional work.</title><rect x="0" y="0" width="1200" height="390" fill="#0A0A0A"/><text x="38" y="43" fill="#F3EFE5" font-family="Courier New,monospace" font-size="17" font-weight="400" letter-spacing="1">02 / INREBUS</text><text x="790" y="43" fill="#F3EFE5" font-family="Courier New,monospace" font-size="17" font-weight="400" letter-spacing="1">PRIVATE / PROFESSIONAL</text><text x="33" y="148" fill="#F3EFE5" font-family="Arial,Helvetica,sans-serif" font-size="92" font-weight="900" letter-spacing="-3.22">DIGITAL</text><text x="33" y="242" fill="#F3EFE5" font-family="Arial,Helvetica,sans-serif" font-size="92" font-weight="900" letter-spacing="-3.22">EXPERIENCE</text><text x="38" y="346" fill="#F3EFE5" font-family="Courier New,monospace" font-size="17" font-weight="400" letter-spacing="1">WEB / MOTION / INTERACTION</text><path d="M790 184L890 84H948V142L848 242Z" fill="none" stroke="#FF4D00" stroke-width="2"/><path d="M816 209L916 109H974V167L874 267Z" fill="none" stroke="#FF4D00" stroke-width="2"/><path d="M842 234L942 134H1000V192L900 292Z" fill="none" stroke="#FF4D00" stroke-width="2"/><path d="M868 259L968 159H1026V217L926 317Z" fill="none" stroke="#FF4D00" stroke-width="2"/><path d="M894 284L994 184H1052V242L952 342Z" fill="none" stroke="#FF4D00" stroke-width="2"/><path d="M920 309L1020 209H1078V267L978 367Z" fill="none" stroke="#FF4D00" stroke-width="2"/></svg>